<svg width="192" height="35" viewBox="0 0 192 35" fill="none" xmlns="http://www.w3.org/2000/svg">
<g filter="url(#filter0_d_517_525)">
<path d="M20.0136 21.0865H11.8194L10.3884 25.7644H4L13.0971 0.723712H18.7188L27.884 25.7644H21.4616L20.0136 21.0865ZM13.2504 16.4257H18.5826L15.908 7.74061L13.2504 16.4257Z" fill="#656980"/>
<path d="M49.4001 17.2856C49.3206 19.0284 48.855 20.5705 48.0032 21.912C47.1514 23.242 45.9532 24.2739 44.4087 25.0077C42.8755 25.7415 41.1208 26.1084 39.1446 26.1084C35.8851 26.1084 33.3184 25.0363 31.4445 22.8923C29.5706 20.7482 28.6336 17.7213 28.6336 13.8116V12.5733C28.6336 10.1197 29.0538 7.97565 29.8943 6.14117C30.746 4.29522 31.9669 2.8735 33.5569 1.876C35.1469 0.867031 36.9868 0.362549 39.0765 0.362549C42.0861 0.362549 44.5052 1.16513 46.3337 2.77031C48.1622 4.36401 49.2014 6.56539 49.4512 9.37444H43.4887C43.4433 7.84953 43.0629 6.75457 42.3474 6.08957C41.6319 5.42457 40.5416 5.09207 39.0765 5.09207C37.5887 5.09207 36.4984 5.65388 35.8056 6.7775C35.1129 7.90112 34.7494 9.69548 34.7154 12.1606V13.932C34.7154 16.6034 35.0447 18.5125 35.7034 19.659C36.3735 20.8056 37.5206 21.3788 39.1446 21.3788C40.5189 21.3788 41.5694 21.0521 42.2962 20.3985C43.0231 19.745 43.4092 18.7074 43.4547 17.2856H49.4001Z" fill="#656980"/>
<path d="M71.1888 5.38444H63.7442V25.7644H57.7647V5.38444H50.4563V0.723712H71.1888V5.38444Z" fill="#656980"/>
<path d="M80.0985 25.7644H74.136V0.723712H80.0985V25.7644Z" fill="#656980"/>
<path d="M93.8803 18.9539L98.8207 0.723712H105.499L97.1512 25.7644H90.6095L82.3301 0.723712H88.957L93.8803 18.9539Z" fill="#656980"/>
<path d="M122.705 15.1531H113.301V21.1209H124.408V25.7644H107.322V0.723712H124.442V5.38444H113.301V10.6643H122.705V15.1531Z" fill="#656980"/>
<path d="M127.454 25.7472V0.706514H133.978C136.647 0.706514 138.663 1.25686 140.026 2.35755C141.4 3.44677 142.087 5.03474 142.087 7.12147C142.087 8.63491 141.707 9.89039 140.946 10.8879C140.185 11.8854 139.112 12.5217 137.726 12.7969C139.294 13.0033 140.6 13.6912 141.644 14.8607C142.689 16.0187 143.212 17.3487 143.212 18.8507C143.212 20.9833 142.525 22.6687 141.15 23.907C139.788 25.1338 137.885 25.7472 135.443 25.7472H127.454ZM128.374 13.3816V24.8185H135.546C137.647 24.8185 139.294 24.2968 140.486 23.2534C141.69 22.1986 142.292 20.7425 142.292 18.8851C142.292 17.3028 141.713 16.0015 140.554 14.9811C139.396 13.9492 137.846 13.416 135.903 13.3816H128.374ZM128.374 12.4529H134.319C136.579 12.4529 138.283 12.0172 139.43 11.1459C140.577 10.263 141.15 8.89862 141.15 7.05267C141.15 3.49837 138.828 1.69255 134.183 1.63522H128.374V12.4529Z" fill="white"/>
<path d="M166.074 15.1015C166.074 17.2684 165.688 19.1889 164.915 20.8629C164.154 22.5254 163.064 23.8152 161.644 24.7325C160.225 25.6383 158.589 26.0912 156.738 26.0912C153.944 26.0912 151.684 25.0879 149.958 23.0815C148.232 21.075 147.368 18.3691 147.368 14.9639V11.3522C147.368 9.19672 147.749 7.28198 148.51 5.60802C149.282 3.93405 150.378 2.64419 151.798 1.73841C153.229 0.821169 154.864 0.362549 156.704 0.362549C158.555 0.362549 160.191 0.821169 161.61 1.73841C163.041 2.64419 164.143 3.93979 164.915 5.62522C165.688 7.29918 166.074 9.20819 166.074 11.3522V15.1015ZM165.154 11.3178C165.154 8.29095 164.393 5.86599 162.871 4.04298C161.349 2.2085 159.293 1.29126 156.704 1.29126C154.149 1.29126 152.11 2.20276 150.588 4.02578C149.066 5.83733 148.305 8.30815 148.305 11.4382V15.1015C148.305 17.0965 148.646 18.8621 149.328 20.3985C150.02 21.9234 151.003 23.0987 152.275 23.9242C153.547 24.7497 155.035 25.1624 156.738 25.1624C159.328 25.1624 161.377 24.2509 162.888 22.4279C164.398 20.6049 165.154 18.1169 165.154 14.9639V11.3178Z" fill="white"/>
<path d="M178.373 12.2465L186.38 0.706514H187.539L178.953 12.9689L187.862 25.7472H186.721L178.373 13.6912L169.992 25.7472H168.885L177.794 12.9689L169.208 0.706514H170.367L178.373 12.2465Z" fill="white"/>
</g>
<defs>
<filter id="filter0_d_517_525" x="0" y="0.362549" width="191.862" height="33.7458" filterUnits="userSpaceOnUse" color-interpolation-filters="sRGB">
<feFlood flood-opacity="0" result="BackgroundImageFix"/>
<feColorMatrix in="SourceAlpha" type="matrix" values="0 0 0 0 0 0 0 0 0 0 0 0 0 0 0 0 0 0 127 0" result="hardAlpha"/>
<feOffset dy="4"/>
<feGaussianBlur stdDeviation="2"/>
<feComposite in2="hardAlpha" operator="out"/>
<feColorMatrix type="matrix" values="0 0 0 0 0 0 0 0 0 0 0 0 0 0 0 0 0 0 0.25 0"/>
<feBlend mode="normal" in2="BackgroundImageFix" result="effect1_dropShadow_517_525"/>
<feBlend mode="normal" in="SourceGraphic" in2="effect1_dropShadow_517_525" result="shape"/>
</filter>
</defs>
</svg>
